<?xml version="1.0" standalone="no"?>
<!DOCTYPE svg PUBLIC "-//W3C//DTD SVG 20010904//EN"
 "http://www.w3.org/TR/2001/REC-SVG-20010904/DTD/svg10.dtd">
<svg version="1.0" xmlns="http://www.w3.org/2000/svg"
 width="512.000000pt" height="512.000000pt" viewBox="0 0 512.000000 512.000000"
 preserveAspectRatio="xMidYMid meet">
<metadata>
Created by potrace 1.14, written by Peter Selinger 2001-2017
</metadata>
<g transform="translate(0.000000,512.000000) scale(0.100000,-0.100000)"
fill="#000000" stroke="none">
<path d="M1743 4734 c-29 -14 -68 -43 -87 -64 -42 -47 -91 -139 -107 -204 -9
-37 -20 -53 -58 -80 -47 -35 -112 -100 -148 -148 l-20 -27 -174 149 c-96 82
-176 149 -179 149 -3 0 -129 -91 -280 -202 l-275 -202 0 -40 c0 -34 4 -42 28
-53 36 -17 33 -19 306 181 183 135 216 155 230 145 9 -7 75 -64 148 -126 l131
-113 -24 -54 c-28 -60 -74 -232 -75 -279 -1 -75 -4 -75 -164 44 l-150 110 -31
-32 c-17 -18 -171 -176 -343 -350 -329 -336 -335 -344 -291 -388 43 -43 51
-37 374 291 l306 311 147 -108 147 -109 12 -83 c13 -92 53 -227 64 -215 4 4
17 33 30 63 60 145 175 306 316 440 228 217 492 344 794 381 l95 11 115 96
c63 52 123 102 132 109 15 13 43 -4 264 -162 210 -149 251 -175 273 -170 31 7
51 31 51 60 0 12 -6 28 -12 37 -7 8 -138 104 -290 212 l-277 198 -158 -133
c-87 -73 -167 -141 -178 -150 -20 -18 -22 -17 -64 37 -24 30 -71 78 -106 106
-58 46 -66 56 -84 117 -66 216 -234 322 -388 245z"/>
<path d="M2420 4014 c-14 -2 -59 -9 -100 -15 -243 -36 -500 -168 -686 -353
-250 -250 -376 -557 -375 -911 1 -341 120 -639 350 -878 188 -195 407 -317
673 -374 126 -27 412 -25 529 5 267 66 465 178 645 364 181 187 293 407 340
665 20 115 20 331 -1 448 -92 517 -500 930 -1017 1030 -81 16 -309 28 -358 19z
m312 -369 c357 -76 642 -368 714 -733 20 -104 18 -268 -6 -374 -61 -277 -250
-513 -511 -638 -139 -66 -220 -83 -394 -83 -123 0 -165 4 -230 21 -348 95
-615 380 -681 728 -24 128 -15 308 20 427 107 360 405 615 778 667 78 11 219
4 310 -15z"/>
<path d="M2417 3549 c-32 -5 -96 -21 -142 -37 -275 -95 -482 -328 -539 -605
-21 -98 -21 -143 0 -151 32 -12 201 -6 255 10 91 27 190 85 269 159 l75 70
199 -5 199 -5 159 -355 c87 -195 168 -363 179 -372 12 -10 30 -18 40 -18 25 0
59 35 59 59 0 14 -343 797 -353 808 -1 0 -93 4 -203 8 l-201 8 33 71 c36 79
71 202 81 286 4 32 13 60 22 67 13 10 8 12 -29 11 -25 0 -71 -4 -103 -9z"/>
<path d="M932 3111 l-53 -6 -170 -383 c-93 -211 -169 -392 -169 -403 0 -39 19
-59 55 -59 18 0 40 6 47 13 7 8 83 172 168 365 l155 351 99 3 c111 3 102 -3
120 91 l7 37 -103 -2 c-57 -1 -127 -4 -156 -7z"/>
<path d="M3690 1973 c-70 -111 -219 -267 -329 -345 -47 -34 -88 -63 -91 -65
-2 -2 252 -260 565 -573 651 -651 619 -625 775 -625 85 0 101 3 153 29 70 36
130 99 165 174 23 48 27 71 27 142 0 155 24 125 -628 778 -314 314 -574 572
-577 572 -3 -1 -30 -40 -60 -87z"/>
</g>
</svg>
