<?xml version="1.0" encoding="utf-8"?>
<!-- Generator: Adobe Illustrator 21.1.0, SVG Export Plug-In . SVG Version: 6.00 Build 0)  -->
<svg version="1.1" id="Layer_1" xmlns="http://www.w3.org/2000/svg" xmlns:xlink="http://www.w3.org/1999/xlink" x="0px" y="0px"
	 viewBox="0 0 275 24" style="enable-background:new 0 0 275 24;" xml:space="preserve">
<style type="text/css">
	.st0{fill:#FFFFFF;}
	.st1{fill:#A8BD3A;}
</style>
<g>
	<path class="st0" d="M36.9,20.4c-4,0-5.9-3.4-5.9-7.5s1.8-7.5,5.9-7.5s5.8,3.4,5.8,7.5C42.7,17.1,41,20.4,36.9,20.4z M36.9,6.6
		c-3,0-4,3.3-4,6.3s1,6.2,4,6.2c3.1,0,4-3.2,4-6.2S39.9,6.6,36.9,6.6z"/>
	<path class="st0" d="M47.8,9.8v10.3h-1.6V9.8h-1.7v-1h1.7V7.2c0-2.1,1.2-3.5,3.6-3.5c0.2,0,0.4,0,0.4,0v1H50
		c-1.1,0-2.2,0.7-2.2,2.3v1.8h2.4v1H47.8z"/>
	<path class="st0" d="M54.5,9.8v10.3h-1.6V9.8h-1.7v-1h1.7V7.2c0-2.1,1.2-3.5,3.6-3.5c0.2,0,0.4,0,0.4,0v1h-0.2
		c-1.1,0-2.2,0.7-2.2,2.3v1.8h2.4v1H54.5z"/>
	<path class="st0" d="M59.6,6.7c-0.6,0-1-0.4-1-1s0.5-1,1-1c0.6,0,1,0.5,1,1S60.2,6.7,59.6,6.7z M58.8,20.1V8.8h1.7v11.3H58.8z"/>
	<path class="st0" d="M67.5,20.4c-2.7,0-4.7-2.3-4.7-5.9c0-3.7,2.1-5.9,4.8-5.9c1.4,0,2.3,0.4,2.8,0.8l-0.4,1
		c-0.4-0.3-1.1-0.6-2-0.6c-2.3,0-3.5,2-3.5,4.7c0,2.8,1.3,4.7,3.4,4.7c0.8,0,1.5-0.3,2-0.6l0.4,1.1C69.8,20,68.9,20.4,67.5,20.4z"/>
	<path class="st0" d="M73,15.2c0.2,2.7,1.7,4,4,4c1.4,0,2.4-0.4,3.1-0.7l0.5,1.2c-0.7,0.4-2,0.8-3.7,0.8c-3.2,0-5.4-1.9-5.4-6
		c0-3.9,2.1-5.9,4.9-5.9c2.9,0,4.6,1.8,4.6,5.5L73,15.2z M76.3,9.6c-1.8,0-3.4,1.4-3.4,4.6l6.4-0.9C79.3,10.7,78.1,9.6,76.3,9.6z"/>
	<path class="st0" d="M88.9,9.8v10.3h-1.6V9.8h-1.7v-1h1.7V7.2c0-2.1,1.2-3.5,3.6-3.5c0.2,0,0.4,0,0.4,0v1h-0.2
		c-1.1,0-2.2,0.7-2.2,2.3v1.8h2.4v1H88.9z"/>
	<path class="st0" d="M97.3,20.4c-3.3,0-4.9-2.6-4.9-5.9s1.5-5.9,4.9-5.9c3.3,0,4.8,2.6,4.8,5.9C102.1,17.8,100.6,20.4,97.3,20.4z
		 M97.3,9.7c-2.5,0-3.2,2.5-3.2,4.8s0.8,4.7,3.2,4.7c2.5,0,3.2-2.4,3.2-4.7C100.4,12.2,99.7,9.7,97.3,9.7z"/>
	<path class="st0" d="M109.2,9.9c-1-0.3-2.6-0.2-3.3,0.2v10h-1.7V9.3c1.2-0.5,2.4-0.8,4.5-0.8c0.3,0,0.7,0,0.8,0L109.2,9.9z"/>
	<path class="st0" d="M124.1,20.2l-6.4-9.9c-0.5-0.7-0.8-1.5-0.8-1.5l0,0c0,0,0.1,0.8,0.1,1.7v9.6h-2.1V5.8h2.4l6.1,9.3
		c0.5,0.8,0.8,1.5,0.8,1.5l0,0c0,0-0.1-0.8-0.1-1.7V5.8h2.1v14.4H124.1z"/>
	<path class="st0" d="M133.1,20.5c-3.3,0-4.9-1.3-4.9-3.5c0-3,3.2-3.9,7-4.2v-0.6c0-1.6-1.1-2-2.6-2c-1.1,0-2.4,0.3-3.1,0.7
		l-0.6-1.4c0.8-0.3,2.3-0.8,4.1-0.8c2.5,0,4.4,1,4.4,3.9v7.1C136.5,20.2,134.9,20.5,133.1,20.5z M135.2,14c-2.8,0.3-4.7,0.8-4.7,3
		c0,1.5,1.1,2.2,2.8,2.2c0.8,0,1.5-0.2,1.9-0.4V14z"/>
	<path class="st0" d="M144,20.5c-2.4,0-3.3-1.5-3.3-3.1v-7h-1.6V8.9h1.6V6.4l2.4-0.7v3.2h2.2v1.5h-2.2v6.9c0,0.9,0.5,1.6,1.5,1.6
		c0.2,0,0.4,0,0.7-0.1v1.5C145.1,20.4,144.6,20.5,144,20.5z"/>
	<path class="st0" d="M148.4,7c-0.8,0-1.4-0.6-1.4-1.3s0.6-1.3,1.4-1.3c0.8,0,1.4,0.6,1.4,1.3C149.8,6.4,149.2,7,148.4,7z
		 M147.2,20.2V8.9h2.4v11.3H147.2z"/>
	<path class="st0" d="M156.9,20.5c-3.5,0-5.2-2.6-5.2-5.9s1.7-6,5.2-6s5.1,2.6,5.1,6S160.3,20.5,156.9,20.5z M156.9,10.2
		c-2.1,0-2.7,2.2-2.7,4.4s0.7,4.3,2.7,4.3c2.1,0,2.7-2.1,2.7-4.3C159.6,12.4,159,10.2,156.9,10.2z"/>
	<path class="st0" d="M171,20.2v-8.1c0-1.4-1.2-2-2.6-2c-0.8,0-1.5,0.1-1.9,0.3v9.7H164V9.5c1.1-0.5,2.7-0.8,4.5-0.8
		c2.9,0,4.9,1,4.9,3.5v8.1L171,20.2L171,20.2z"/>
	<path class="st0" d="M180.2,20.5c-3.3,0-4.9-1.3-4.9-3.5c0-3,3.2-3.9,7-4.2v-0.6c0-1.6-1.1-2-2.6-2c-1.1,0-2.4,0.3-3.1,0.7L176,9.5
		c0.8-0.3,2.3-0.8,4.1-0.8c2.5,0,4.4,1,4.4,3.9v7.1C183.6,20.2,182.1,20.5,180.2,20.5z M182.3,14c-2.8,0.3-4.7,0.8-4.7,3
		c0,1.5,1.1,2.2,2.8,2.2c0.8,0,1.5-0.2,1.9-0.4V14z"/>
	<path class="st0" d="M187.1,20.2v-5.5v-11h2.4v5.6v10.9H187.1z"/>
	<path class="st0" d="M199,20.5c-1.7,0-3.1-0.4-3.9-0.8l0.7-1.8c0.6,0.3,1.7,0.7,2.8,0.7c1.7,0,2.9-1,2.9-2.4c0-3.2-6-1.9-6-6.4
		c0-2.3,1.9-4.3,4.8-4.3c1.6,0,2.8,0.4,3.5,0.8l-0.6,1.6c-0.5-0.3-1.5-0.7-2.5-0.7c-1.6,0-2.6,0.9-2.6,2.3c0,3.1,6.1,1.8,6.1,6.5
		C204.1,18.6,202,20.5,199,20.5z"/>
	<path class="st0" d="M210.2,20.5c-2.4,0-3.3-1.5-3.3-3.1v-7h-1.6V8.9h1.6V6.4l2.4-0.7v3.2h2.2v1.5h-2.2v6.9c0,0.9,0.5,1.6,1.5,1.6
		c0.2,0,0.4,0,0.7-0.1v1.5C211.3,20.4,210.8,20.5,210.2,20.5z"/>
	<path class="st0" d="M217.7,20.5c-3.3,0-4.9-1.3-4.9-3.5c0-3,3.2-3.9,7-4.2v-0.6c0-1.6-1.1-2-2.6-2c-1.1,0-2.4,0.3-3.1,0.7
		l-0.6-1.4c0.8-0.3,2.3-0.8,4.1-0.8c2.5,0,4.4,1,4.4,3.9v7.1C221.1,20.2,219.6,20.5,217.7,20.5z M219.8,14c-2.8,0.3-4.7,0.8-4.7,3
		c0,1.5,1.1,2.2,2.8,2.2c0.8,0,1.5-0.2,1.9-0.4V14z"/>
	<path class="st0" d="M228.6,20.5c-2.4,0-3.3-1.5-3.3-3.1v-7h-1.6V8.9h1.6V6.4l2.4-0.7v3.2h2.2v1.5h-2.2v6.9c0,0.9,0.5,1.6,1.5,1.6
		c0.2,0,0.4,0,0.7-0.1v1.5C229.7,20.4,229.3,20.5,228.6,20.5z"/>
	<path class="st0" d="M233.1,7c-0.8,0-1.4-0.6-1.4-1.3s0.6-1.3,1.4-1.3c0.8,0,1.4,0.6,1.4,1.3S233.8,7,233.1,7z M231.9,20.2V8.9h2.4
		v11.3H231.9z"/>
	<path class="st0" d="M239.6,20.5c-1.4,0-2.7-0.4-3.4-0.8l0.6-1.6c0.5,0.3,1.4,0.7,2.5,0.7c1.2,0,2.2-0.8,2.2-1.8c0-2.7-5-1.4-5-5.1
		c0-1.7,1.5-3.3,4-3.3c1.4,0,2.4,0.4,3.2,0.8l-0.6,1.4c-0.4-0.3-1.1-0.6-2.1-0.6c-1.3,0-2,0.8-2,1.6c0,2.5,5.1,1.4,5.1,5.2
		C244,18.8,242.3,20.5,239.6,20.5z"/>
	<path class="st0" d="M250.1,20.5c-2.4,0-3.3-1.5-3.3-3.1v-7h-1.6V8.9h1.6V6.4l2.4-0.7v3.2h2.2v1.5h-2.2v6.9c0,0.9,0.5,1.6,1.5,1.6
		c0.2,0,0.4,0,0.7-0.1v1.5C251.2,20.4,250.7,20.5,250.1,20.5z"/>
	<path class="st0" d="M254.5,7c-0.8,0-1.4-0.6-1.4-1.3s0.6-1.3,1.4-1.3c0.8,0,1.4,0.6,1.4,1.3S255.3,7,254.5,7z M253.3,20.2V8.9h2.4
		v11.3H253.3z"/>
	<path class="st0" d="M262.7,20.5c-2.8,0-4.9-2.3-4.9-6s2.2-5.9,4.9-5.9c1.4,0,2.4,0.4,2.9,0.8l-0.5,1.4c-0.3-0.3-1-0.5-1.8-0.5
		c-2,0-3,1.7-3,4.2c0,2.6,1.2,4.3,2.9,4.3c0.8,0,1.3-0.3,1.8-0.6l0.6,1.5C265.2,20.1,264.2,20.5,262.7,20.5z"/>
	<path class="st0" d="M270.2,20.5c-1.4,0-2.7-0.4-3.4-0.8l0.6-1.6c0.5,0.3,1.4,0.7,2.5,0.7c1.2,0,2.2-0.8,2.2-1.8c0-2.7-5-1.4-5-5.1
		c0-1.7,1.5-3.3,4-3.3c1.4,0,2.4,0.4,3.2,0.8l-0.6,1.4c-0.4-0.3-1.1-0.6-2.1-0.6c-1.3,0-2,0.8-2,1.6c0,2.5,5.1,1.4,5.1,5.2
		C274.6,18.8,272.9,20.5,270.2,20.5z"/>
</g>
<g>
	<path class="st1" d="M0,14c0.4-0.8,0.6-1.3,1-2c-0.5-1.1-0.8-1.7-1-2.9C0,11.1,0,12.4,0,14z M2.2,0C2.2,0,0,0,0,2.8
		C0,3,0,2.5,0,3.2c0.2,2.5,1,5.2,1.9,7.4c1.3-2,2.4-3.2,4.2-4.8C9.8,2.8,14,0.9,20.7,0H2.2z"/>
	<path class="st0" d="M23.9,1.5C16.3,2.2,11.1,4.4,7.4,7.6c-2,1.7-3.2,3.1-4.5,5.4c2.9,5.7,8.8,10.4,18.1,11h0.2
		c0,0,2.8,0.1,2.8-3.1V1.5H23.9z M4.4,17.6c-0.9-1-1.6-2.1-2.3-3.3c-0.8,1.5-1.5,3.2-2.1,4.9C0,22,0,24,0,24h14
		C9.6,22.6,6.9,20.6,4.4,17.6z"/>
</g>
</svg>
